<svg width="24" height="24" viewBox="0 0 24 24" fill="none" xmlns="http://www.w3.org/2000/svg">
<g clip-path="url(#clip0_371_4592)">
<path d="M12.1601 2.99497C12.9787 3.04147 13.6601 3.43184 14.0711 4.22534L20.7971 17.8033C21.4492 19.1758 20.4394 21.0227 18.7822 21.0493H5.23761C3.72936 21.0253 2.49186 19.3127 3.23061 17.7883L10.0822 4.21072C10.2105 3.96697 10.269 3.89647 10.3796 3.76859C10.8244 3.25297 11.3107 2.97697 12.1601 2.99497ZM12.0495 4.49384C11.7919 4.50659 11.556 4.65097 11.4274 4.87522C9.06036 9.36734 6.77849 13.9056 4.56449 18.4753C4.35974 18.9347 4.71111 19.5242 5.22524 19.549C9.74774 19.6221 14.2721 19.6221 18.7946 19.549C19.2915 19.525 19.665 18.955 19.458 18.4802C17.2856 13.9112 15.0461 9.37297 12.7207 4.88009C12.5835 4.63597 12.3821 4.48934 12.0495 4.49384Z" fill="#FFCD03"/>
<path d="M12.6118 15.2177H11.3563L11.2183 9.04932H12.7558L12.6118 15.2177ZM11.1763 17.1039C11.1763 16.8756 11.2501 16.6866 11.3983 16.5362C11.5468 16.3862 11.7489 16.3108 12.005 16.3108C12.2615 16.3108 12.4636 16.3862 12.6118 16.5362C12.7599 16.6866 12.8341 16.8756 12.8341 17.1039C12.8341 17.3241 12.7618 17.5082 12.6178 17.6563C12.4734 17.8044 12.2694 17.8787 12.005 17.8787C11.7406 17.8787 11.5366 17.8044 11.3923 17.6563C11.2483 17.5082 11.1763 17.3241 11.1763 17.1039Z" fill="#FFCD03"/>
</g>
<defs>
<clipPath id="clip0_371_4592">
<rect width="24" height="24" fill="white"/>
</clipPath>
</defs>
</svg>
