<svg width="40" height="40" viewBox="0 0 40 40" fill="none" xmlns="http://www.w3.org/2000/svg">
<g clip-path="url(#clip0_33_743)">
<path d="M14.8581 0.50708C14.8979 0.495827 15.0404 0.480425 15.3561 0.596924C16.0149 0.840003 17.302 1.61414 18.697 2.70923C20.0824 3.79689 21.5183 5.15749 22.4938 6.53442C23.9138 8.53867 24.8777 10.5036 25.486 11.968C25.79 12.6997 26.0042 13.3055 26.1423 13.7258C26.2112 13.9356 26.2613 14.0991 26.2936 14.2092C26.3098 14.2643 26.3222 14.3069 26.3298 14.3342C26.3334 14.3473 26.3359 14.3572 26.3376 14.3635C26.3384 14.3664 26.3392 14.369 26.3395 14.3704V14.3723L26.5915 15.3303L27.2136 14.5579L27.2145 14.5569C27.2153 14.556 27.2163 14.5544 27.2175 14.553C27.2198 14.5501 27.2233 14.5462 27.2272 14.5413C27.2352 14.5311 27.2463 14.5166 27.2604 14.4983C27.2889 14.4612 27.3288 14.4073 27.3776 14.3401C27.4752 14.2058 27.6089 14.0152 27.7526 13.7844C28.0365 13.3286 28.3786 12.6926 28.5612 12.0237C28.6559 11.6769 28.7331 11.3064 28.7985 11.0364C28.8353 10.8846 28.8679 10.7648 28.8981 10.6721L28.9255 10.5979C29.0115 10.6722 29.1219 10.7869 29.2604 10.9553C30.367 12.3008 32.0203 14.8451 32.945 17.2483C33.7813 19.4219 34.0847 21.5633 34.1774 23.1663C34.2237 23.9662 34.2176 24.6286 34.1999 25.0891C34.191 25.319 34.179 25.4987 34.1696 25.6194C34.165 25.6794 34.1607 25.7253 34.1579 25.7551C34.1565 25.77 34.1557 25.7814 34.155 25.7883C34.1546 25.7918 34.1541 25.7947 34.154 25.7961V25.7971L34.152 25.8137L34.1511 25.8313C33.8334 33.4172 27.5855 39.4709 19.9216 39.4709C12.0592 39.4709 5.6767 32.876 5.67645 25.2258C5.67645 24.2104 5.65198 22.1693 7.20184 18.6838C8.14593 16.5608 8.76143 15.1783 9.11005 13.9065C9.15566 13.7401 9.20403 13.579 9.26239 13.4495C9.27312 13.4257 9.28291 13.4044 9.29266 13.386C9.39581 13.4801 9.5552 13.6695 9.76532 14.0276C10.0216 14.4644 10.1655 15.0214 10.2429 15.4954C10.2808 15.7277 10.3014 15.9309 10.3122 16.0745C10.3175 16.1457 10.3203 16.2019 10.322 16.2395C10.3228 16.2582 10.3227 16.2726 10.3229 16.2815C10.3231 16.2859 10.3239 16.2895 10.3239 16.2913V16.2922L10.3395 17.2864L11.1276 16.6809H11.1286L11.1315 16.678C11.1332 16.6767 11.1357 16.6752 11.1384 16.6731C11.1439 16.6688 11.1512 16.6622 11.1608 16.6545C11.1802 16.6391 11.208 16.6171 11.2429 16.5881C11.3126 16.5301 11.4119 16.445 11.5349 16.3333C11.7806 16.1097 12.1218 15.779 12.5104 15.343C13.2872 14.4717 14.259 13.1757 15.0427 11.4739C16.196 8.96906 16.3213 6.94045 16.0651 5.26782C15.9381 4.43806 15.7186 3.70654 15.4968 3.06372C15.2666 2.39669 15.0591 1.88904 14.9099 1.39478C14.8643 1.24416 14.8248 1.06943 14.8093 0.904541C14.7931 0.731933 14.8074 0.61117 14.8317 0.544189C14.8479 0.499633 14.8533 0.50844 14.8581 0.50708Z" fill="url(#paint0_linear_33_743)" stroke="black"/>
<path fill-rule="evenodd" clip-rule="evenodd" d="M19.9216 39.9705C14.2904 39.9705 9.72549 35.4056 9.72549 29.7744C9.72549 26.3766 11.0947 24.3137 13.9445 21.5162C15.7691 19.725 17.4769 17.525 18.2027 16.0269C18.3456 15.732 18.6707 14.1952 19.9246 15.9946C20.5823 16.9383 21.6133 18.6166 22.2745 20.0489C23.4143 22.5184 23.6863 24.9116 23.6863 24.9116C23.6863 24.9116 24.8033 24.2534 25.5686 22.5587C25.8154 22.0125 26.3142 19.9447 27.7087 22.0122C28.7319 23.5294 30.1376 26.2572 30.1176 29.7744C30.1176 35.4056 25.5526 39.9705 19.9216 39.9705Z" fill="#FC9502"/>
<path fill-rule="evenodd" clip-rule="evenodd" d="M20.0784 28.8333C21.5294 28.8333 21.5294 31.5202 23.3725 35.1078C24.5998 37.4966 22.7641 39.9705 20.0784 39.9705C17.3928 39.9705 16 37.7934 16 35.1078C16 32.4223 18.6275 28.8333 20.0784 28.8333Z" fill="#FCE202"/>
</g>
<defs>
<linearGradient id="paint0_linear_33_743" x1="19.9437" y1="40" x2="19.9437" y2="0.029472" gradientUnits="userSpaceOnUse">
<stop stop-color="#FF4C0D"/>
<stop offset="1" stop-color="#FC9502"/>
</linearGradient>
<clipPath id="clip0_33_743">
<rect width="40" height="40" fill="white"/>
</clipPath>
</defs>
</svg>
