<svg width="100" height="100" viewBox="0 0 100 100" fill="none" xmlns="http://www.w3.org/2000/svg">
<rect width="100" height="100" rx="50" fill="#292929"/>
<path d="M50.5 36.6667C50.4778 34.6007 49.9862 32.5669 49.0622 30.7189C48.1382 28.871 46.8061 27.2573 45.1667 26" stroke="#22C55E" stroke-width="4" stroke-linecap="round" stroke-linejoin="round"/>
<path d="M29.38 51.0134C30.7133 63.1467 36.3133 74 41.9933 74C45.7 74 46.5533 71.3334 50.5 71.3334C54.4467 71.3334 55.3267 74 59.0067 74C64.6867 74 70.2867 63.1467 71.62 51.0134C72.5533 42.4 70.3933 37.04 65.1667 34.8534C58.5 32.0534 54.74 36.6667 50.5 36.6667C46.26 36.6667 42.5 32.0534 35.86 34.8534C30.6333 37.04 28.42 42.4 29.38 51.0134Z" stroke="#22C55E" stroke-width="4" stroke-linecap="round" stroke-linejoin="round"/>
</svg>
