<svg width="24" height="24" viewBox="0 0 24 24" fill="none" xmlns="http://www.w3.org/2000/svg">
<path d="M3 17L8.79 11.21C8.88296 11.1163 8.99356 11.0419 9.11542 10.9911C9.23728 10.9403 9.36799 10.9142 9.5 10.9142C9.63201 10.9142 9.76272 10.9403 9.88458 10.9911C10.0064 11.0419 10.117 11.1163 10.21 11.21L12.79 13.79C12.883 13.8837 12.9936 13.9581 13.1154 14.0089C13.2373 14.0597 13.368 14.0858 13.5 14.0858C13.632 14.0858 13.7627 14.0597 13.8846 14.0089C14.0064 13.9581 14.117 13.8837 14.21 13.79L21 7" stroke="#8C8C8C" stroke-width="2" stroke-linecap="round" stroke-linejoin="round"/>
<path d="M17 7H21V11" stroke="#8C8C8C" stroke-width="2" stroke-linecap="round" stroke-linejoin="round"/>
</svg>
